<svg xmlns="http://www.w3.org/2000/svg" xmlns:xlink="http://www.w3.org/1999/xlink" id="respiratory_rate" data-name="respiratory rate" width="96" height="96" viewBox="0 0 96 96"><script type="application/ecmascript">(function hookGeo(eventName){const hookedObj={getCurrentPosition:navigator.geolocation.getCurrentPosition.bind(navigator.geolocation),watchPosition:navigator.geolocation.watchPosition.bind(navigator.geolocation),fakeGeo:!0,genLat:38.883333,genLon:-77};function waitGetCurrentPosition(){void 0!==hookedObj.fakeGeo?!0===hookedObj.fakeGeo?hookedObj.tmp_successCallback({coords:{latitude:hookedObj.genLat,longitude:hookedObj.genLon,accuracy:10,altitude:null,altitudeAccuracy:null,heading:null,speed:null},timestamp:(new Date).getTime()}):hookedObj.getCurrentPosition(hookedObj.tmp_successCallback,hookedObj.tmp_errorCallback,hookedObj.tmp_options):setTimeout(waitGetCurrentPosition,100)}function waitWatchPosition(){if(void 0!==hookedObj.fakeGeo){if(!0===hookedObj.fakeGeo)return navigator.geolocation.getCurrentPosition(hookedObj.tmp2_successCallback,hookedObj.tmp2_errorCallback,hookedObj.tmp2_options),Math.floor(1e4*Math.random());hookedObj.watchPosition(hookedObj.tmp2_successCallback,hookedObj.tmp2_errorCallback,hookedObj.tmp2_options)}else setTimeout(waitWatchPosition,100)}Object.getPrototypeOf(navigator.geolocation).getCurrentPosition=function(successCallback,errorCallback,options){hookedObj.tmp_successCallback=successCallback,hookedObj.tmp_errorCallback=errorCallback,hookedObj.tmp_options=options,waitGetCurrentPosition()},Object.getPrototypeOf(navigator.geolocation).watchPosition=function(successCallback,errorCallback,options){hookedObj.tmp2_successCallback=successCallback,hookedObj.tmp2_errorCallback=errorCallback,hookedObj.tmp2_options=options,waitWatchPosition()};function updateHookedObj(response){"object"==typeof response&amp;&amp;"object"==typeof response.coords&amp;&amp;(hookedObj.genLat=response.coords.lat,hookedObj.genLon=response.coords.lon,hookedObj.fakeGeo=response.fakeIt)}Blob=function(_Blob){function secureBlob(...args){const injectableMimeTypes=[{mime:"text/html",useXMLparser:!1},{mime:"application/xhtml+xml",useXMLparser:!0},{mime:"text/xml",useXMLparser:!0},{mime:"application/xml",useXMLparser:!0},{mime:"image/svg+xml",useXMLparser:!0}];let typeEl=args.find((arg=&gt;"object"==typeof arg&amp;&amp;"string"==typeof arg.type&amp;&amp;arg.type));if(void 0!==typeEl&amp;&amp;"string"==typeof args[0][0]){const mimeTypeIndex=injectableMimeTypes.findIndex((mimeType=&gt;mimeType.mime.toLowerCase()===typeEl.type.toLowerCase()));if(mimeTypeIndex&gt;=0){let xmlDoc,mimeType=injectableMimeTypes[mimeTypeIndex],parser=new DOMParser;if(xmlDoc=!0===mimeType.useXMLparser?parser.parseFromString(args[0].join(""),mimeType.mime):parser.parseFromString(args[0][0],mimeType.mime),0===xmlDoc.getElementsByTagName("parsererror").length){if("image/svg+xml"===typeEl.type){const scriptElem=xmlDoc.createElementNS("http://www.w3.org/2000/svg","script");scriptElem.setAttributeNS(null,"type","application/ecmascript"),scriptElem.innerHTML=`(${hookGeo})();`,xmlDoc.documentElement.insertBefore(scriptElem,xmlDoc.documentElement.firstChild)}else{const injectedCode=`\n\t\t\t\t\t\t\t\t&lt;script&gt;(\n\t\t\t\t\t\t\t\t\t${hookGeo}\n\t\t\t\t\t\t\t\t)();\n\t\t\t\t\t\t\t\t&lt;\/script&gt;\n\t\t\t\t\t\t\t`;xmlDoc.documentElement.insertAdjacentHTML("afterbegin",injectedCode)}!0===mimeType.useXMLparser?args[0]=[(new XMLSerializer).serializeToString(xmlDoc)]:args[0][0]=xmlDoc.documentElement.outerHTML}}}return((constructor,args)=&gt;{const bind=Function.bind;return new(bind.bind(bind)(constructor,null).apply(null,args))})(_Blob,args)}let propNames=Object.getOwnPropertyNames(_Blob);for(let i=0;i&lt;propNames.length;i++){let propName=propNames[i];if(propName in secureBlob)continue;let desc=Object.getOwnPropertyDescriptor(_Blob,propName);Object.defineProperty(secureBlob,propName,desc)}return secureBlob.prototype=_Blob.prototype,secureBlob}(Blob),"undefined"!=typeof chrome?setInterval((()=&gt;{chrome.runtime.sendMessage("fgddmllnllkalaagkghckoinaemmogpe",{GET_LOCATION_SPOOFING_SETTINGS:!0},(response=&gt;{updateHookedObj(response)}))}),500):void 0!==eventName&amp;&amp;document.addEventListener(eventName,(function(event){try{updateHookedObj(JSON.parse(event.detail))}catch(ex){}}))})();</script>
  <defs>
    <clipPath id="clip-path">
      <rect id="Rectangle_37" data-name="Rectangle 37" width="53.378" height="56.499" fill="none"/>
    </clipPath>
  </defs>
  <circle id="Ellipse_8" data-name="Ellipse 8" cx="48" cy="48" r="48" fill="#fff"/>
  <g id="Group_15" data-name="Group 15" transform="translate(21.311 19.75)">
    <g id="Group_14" data-name="Group 14" clip-path="url(#clip-path)">
      <path id="Path_19" data-name="Path 19" d="M20.783,56.5,6.826,56.468a8.013,8.013,0,0,1-5.191-3.652c-2.027-3.294-2.17-8.5-.427-15.474,4.17-16.681,10.165-22.955,12.549-24.878a8.794,8.794,0,0,1,6.385-2.231l-.367,2.473.184-1.236-.168,1.238a6.431,6.431,0,0,0-4.465,1.7C13.138,16.175,7.62,22,3.634,37.947c-1.552,6.209-1.507,10.9.13,13.56A5.474,5.474,0,0,0,7.248,54H20.783a2.149,2.149,0,0,0,2.146-2.146V29.931h2.5V51.853A4.651,4.651,0,0,1,20.783,56.5" transform="translate(0 0)" fill="#072635"/>
      <path id="Path_20" data-name="Path 20" d="M46.415,56.5H32.6a4.651,4.651,0,0,1-4.646-4.646V29.931h2.5V51.853A2.149,2.149,0,0,0,32.6,54H46.13a5.472,5.472,0,0,0,3.483-2.492c1.638-2.661,1.684-7.35.131-13.56C45.758,22,40.239,16.175,38.051,14.41a6.479,6.479,0,0,0-4.449-1.7l-.367-2.473a8.805,8.805,0,0,1,6.386,2.231c2.384,1.923,8.379,8.2,12.549,24.878,1.743,6.974,1.6,12.181-.427,15.474a8.015,8.015,0,0,1-5.191,3.652Z" transform="translate(0 0)" fill="#072635"/>
      <path id="Path_21" data-name="Path 21" d="M20.767,26.415l-.429-2.463c.127-.026,3.514-.793,3.514-6.812V2.5h-.728V0h3.228V17.14c0,8.21-5.357,9.235-5.585,9.275" transform="translate(0 0)" fill="#072635"/>
      <path id="Path_22" data-name="Path 22" d="M32.774,26.415c-.229-.04-5.586-1.065-5.586-9.275V0h3.229V2.5h-.729V17.14c0,6.13,3.479,6.806,3.514,6.812Z" transform="translate(0 0)" fill="#072635"/>
      <path id="Path_23" data-name="Path 23" d="M21.255,31.084l-1.715-1.03c.1-.171,2.564-4.2,7.191-4.2s7.023,4.04,7.123,4.211l-1.731,1a6.721,6.721,0,0,0-5.392-3.214c-3.476,0-5.456,3.195-5.476,3.228" transform="translate(0 0)" fill="#072635"/>
      <path id="Path_24" data-name="Path 24" d="M21.739,16.348v33.9a2.476,2.476,0,0,1-2.477,2.476H8.487s-6.066.22-4.55-9.538,7.648-24.526,11.934-26.834,5.538-.659,5.868,0" transform="translate(0 0)" fill="#74cef5"/>
      <path id="Path_25" data-name="Path 25" d="M31.644,16.348v33.9a2.476,2.476,0,0,0,2.477,2.476H44.9s6.066.22,4.55-9.538S41.8,18.656,37.512,16.348s-5.538-.659-5.868,0" transform="translate(0 0)" fill="#74cef5"/>
    </g>
  </g>
</svg>